<svg
      width="151"
      height="85"
      viewBox="0 0 151 85"
      fill="none"
      xmlns="http://www.w3.org/2000/svg"
    >
      <path
        d="M10.9773 56.7686V71.7004H2.64205V36.7913H10.7045V50.3254H10.9943C11.5852 48.7118 12.5511 47.4504 13.892 46.5413C15.2443 45.6323 16.8977 45.1777 18.8523 45.1777C20.6932 45.1777 22.2955 45.5868 23.6591 46.405C25.0227 47.2118 26.0795 48.3538 26.8295 49.8311C27.5909 51.3084 27.9659 53.0357 27.9545 55.0129V71.7004H19.6193V56.6493C19.6307 55.1948 19.267 54.0584 18.5284 53.2402C17.7898 52.422 16.75 52.0129 15.4091 52.0129C14.5341 52.0129 13.7614 52.2061 13.0909 52.5925C12.4318 52.9675 11.9148 53.5073 11.5398 54.2118C11.1761 54.9163 10.9886 55.7686 10.9773 56.7686ZM40.5384 72.1436C38.8679 72.1436 37.3849 71.8652 36.0895 71.3084C34.8054 70.7402 33.7884 69.8879 33.0384 68.7516C32.2997 67.6038 31.9304 66.1663 31.9304 64.4391C31.9304 62.9845 32.1861 61.7573 32.6974 60.7573C33.2088 59.7573 33.9134 58.9448 34.8111 58.3198C35.7088 57.6948 36.7429 57.2232 37.9134 56.905C39.0838 56.5754 40.3338 56.3538 41.6634 56.2402C43.152 56.1038 44.3509 55.9618 45.2599 55.8141C46.169 55.655 46.8281 55.4334 47.2372 55.1493C47.6577 54.8538 47.8679 54.4391 47.8679 53.905V53.8198C47.8679 52.9448 47.5668 52.2686 46.9645 51.7913C46.3622 51.3141 45.5497 51.0754 44.527 51.0754C43.4247 51.0754 42.5384 51.3141 41.8679 51.7913C41.1974 52.2686 40.7713 52.9277 40.5895 53.7686L32.902 53.4959C33.1293 51.905 33.7145 50.4845 34.6577 49.2345C35.6122 47.9732 36.919 46.9845 38.5781 46.2686C40.2486 45.5413 42.2543 45.1777 44.5952 45.1777C46.2656 45.1777 47.8054 45.3766 49.2145 45.7743C50.6236 46.1607 51.8509 46.7288 52.8963 47.4788C53.9418 48.2175 54.7486 49.1266 55.3168 50.2061C55.8963 51.2857 56.1861 52.5186 56.1861 53.905V71.7004H48.3452V68.0527H48.1406C47.6747 68.9391 47.0781 69.6891 46.3509 70.3027C45.6349 70.9163 44.7884 71.3766 43.8111 71.6834C42.8452 71.9902 41.7543 72.1436 40.5384 72.1436ZM43.1122 66.6891C44.0099 66.6891 44.8168 66.5073 45.5327 66.1436C46.2599 65.78 46.8395 65.28 47.2713 64.6436C47.7031 63.9959 47.919 63.2459 47.919 62.3936V59.905C47.6804 60.03 47.3906 60.1436 47.0497 60.2459C46.7202 60.3482 46.3565 60.4448 45.9588 60.5357C45.5611 60.6266 45.152 60.7061 44.7315 60.7743C44.3111 60.8425 43.9077 60.905 43.5213 60.9618C42.7372 61.0868 42.0668 61.28 41.5099 61.5413C40.9645 61.8027 40.544 62.1436 40.2486 62.5641C39.9645 62.9732 39.8224 63.4618 39.8224 64.03C39.8224 64.8936 40.1293 65.5527 40.7429 66.0073C41.3679 66.4618 42.1577 66.6891 43.1122 66.6891ZM61.2827 71.7004V36.7913H69.6179V50.0016H69.7884C70.1293 49.2061 70.6122 48.4391 71.2372 47.7004C71.8736 46.9618 72.6804 46.3595 73.6577 45.8936C74.6463 45.4163 75.8281 45.1777 77.2031 45.1777C79.0213 45.1777 80.7202 45.655 82.2997 46.6095C83.8906 47.5641 85.1747 49.0357 86.152 51.0243C87.1293 53.0129 87.6179 55.547 87.6179 58.6266C87.6179 61.5925 87.1463 64.0754 86.2031 66.0754C85.2713 68.0754 84.0099 69.5754 82.419 70.5754C80.8395 71.5754 79.0838 72.0754 77.152 72.0754C75.8338 72.0754 74.6918 71.8595 73.7259 71.4277C72.7599 70.9959 71.9474 70.4277 71.2884 69.7232C70.6406 69.0186 70.1406 68.2629 69.7884 67.4561H69.5327V71.7004H61.2827ZM69.4474 58.6095C69.4474 60.0186 69.6349 61.2459 70.0099 62.2913C70.3963 63.3368 70.9474 64.1493 71.6634 64.7288C72.3906 65.297 73.2599 65.5811 74.2713 65.5811C75.294 65.5811 76.1634 65.297 76.8793 64.7288C77.5952 64.1493 78.1349 63.3368 78.4986 62.2913C78.8736 61.2459 79.0611 60.0186 79.0611 58.6095C79.0611 57.2004 78.8736 55.9788 78.4986 54.9448C78.1349 53.9107 77.5952 53.1095 76.8793 52.5413C76.1747 51.9732 75.3054 51.6891 74.2713 51.6891C73.2486 51.6891 72.3793 51.9675 71.6634 52.5243C70.9474 53.0811 70.3963 53.8766 70.0099 54.9107C69.6349 55.9448 69.4474 57.1777 69.4474 58.6095ZM91.9858 71.7004V45.5186H100.321V71.7004H91.9858ZM96.1619 42.4675C94.9915 42.4675 93.9858 42.0811 93.1449 41.3084C92.304 40.5243 91.8835 39.5811 91.8835 38.4788C91.8835 37.3879 92.304 36.4561 93.1449 35.6834C93.9858 34.8993 94.9915 34.5073 96.1619 34.5073C97.3438 34.5073 98.3494 34.8993 99.179 35.6834C100.02 36.4561 100.44 37.3879 100.44 38.4788C100.44 39.5811 100.02 40.5243 99.179 41.3084C98.3494 42.0811 97.3438 42.4675 96.1619 42.4675ZM120.405 45.5186V51.655H103.888V45.5186H120.405ZM107.348 39.2459H115.683V63.4675C115.683 63.9788 115.763 64.3936 115.922 64.7118C116.092 65.0186 116.337 65.2402 116.655 65.3766C116.973 65.5016 117.354 65.5641 117.797 65.5641C118.115 65.5641 118.45 65.5357 118.803 65.4788C119.166 65.4107 119.439 65.3538 119.621 65.3084L120.882 71.3254C120.484 71.4391 119.922 71.5811 119.195 71.7516C118.479 71.922 117.621 72.03 116.621 72.0754C114.666 72.1663 112.99 71.9391 111.592 71.3936C110.206 70.8368 109.143 69.9732 108.405 68.8027C107.678 67.6323 107.325 66.1607 107.348 64.3879V39.2459ZM147.188 53.5129L139.534 53.7175C139.455 53.172 139.239 52.6891 138.886 52.2686C138.534 51.8368 138.074 51.5016 137.506 51.2629C136.949 51.0129 136.301 50.8879 135.562 50.8879C134.597 50.8879 133.773 51.0811 133.091 51.4675C132.42 51.8538 132.091 52.3766 132.102 53.0357C132.091 53.547 132.295 53.9902 132.716 54.3652C133.148 54.7402 133.915 55.0413 135.017 55.2686L140.062 56.2232C142.676 56.7232 144.619 57.5527 145.892 58.7118C147.176 59.8709 147.824 61.405 147.835 63.3141C147.824 65.1095 147.29 66.672 146.233 68.0016C145.188 69.3311 143.756 70.3652 141.938 71.1038C140.119 71.8311 138.04 72.1948 135.699 72.1948C131.96 72.1948 129.011 71.4277 126.852 69.8936C124.705 68.3482 123.477 66.28 123.17 63.6891L131.403 63.4845C131.585 64.4391 132.057 65.1663 132.818 65.6663C133.58 66.1663 134.551 66.4163 135.733 66.4163C136.801 66.4163 137.67 66.2175 138.341 65.8198C139.011 65.422 139.352 64.8936 139.364 64.2345C139.352 63.6436 139.091 63.172 138.58 62.8198C138.068 62.4561 137.267 62.172 136.176 61.9675L131.608 61.0982C128.983 60.6209 127.028 59.7402 125.744 58.4561C124.46 57.1607 123.824 55.5129 123.835 53.5129C123.824 51.7629 124.29 50.2686 125.233 49.03C126.176 47.78 127.517 46.8254 129.256 46.1663C130.994 45.5073 133.045 45.1777 135.409 45.1777C138.955 45.1777 141.75 45.922 143.795 47.4107C145.841 48.8879 146.972 50.922 147.188 53.5129Z"
        fill="white"
      />
      <rect
        x="0.5"
        y="1.20044"
        width="15"
        height="15"
        rx="3.5"
        fill="#18181B"
        stroke="#27272A"
      />
      <rect
        x="20.5"
        y="1.20044"
        width="15"
        height="15"
        rx="3.5"
        fill="#4C1D95"
        stroke="#6D28D9"
      />
      <rect
        x="40.5"
        y="1.20044"
        width="15"
        height="15"
        rx="3.5"
        fill="#5B21B6"
        stroke="#7C3AED"
      />
      <rect
        x="60.5"
        y="1.20044"
        width="15"
        height="15"
        rx="3.5"
        fill="#6D28D9"
        stroke="#8B5CF6"
      />
      <rect
        x="80.5"
        y="1.20044"
        width="15"
        height="15"
        rx="3.5"
        fill="#7C3AED"
        stroke="#A78BFA"
      />
      <rect
        x="100.5"
        y="1.20044"
        width="15"
        height="15"
        rx="3.5"
        fill="#8B5CF6"
        stroke="#C4B5FD"
      />
    </svg>